<svg width="18" height="4" viewBox="0 0 18 4" fill="none" xmlns="http://www.w3.org/2000/svg">
<path d="M8.80005 2.80005C9.35233 2.80005 9.80005 2.35233 9.80005 1.80005C9.80005 1.24776 9.35233 0.800049 8.80005 0.800049C8.24776 0.800049 7.80005 1.24776 7.80005 1.80005C7.80005 2.35233 8.24776 2.80005 8.80005 2.80005Z" stroke="#1E1E1E" stroke-width="1.6" stroke-linecap="round" stroke-linejoin="round"/>
<path d="M15.8 2.80005C16.3523 2.80005 16.8 2.35233 16.8 1.80005C16.8 1.24776 16.3523 0.800049 15.8 0.800049C15.2478 0.800049 14.8 1.24776 14.8 1.80005C14.8 2.35233 15.2478 2.80005 15.8 2.80005Z" stroke="#1E1E1E" stroke-width="1.6" stroke-linecap="round" stroke-linejoin="round"/>
<path d="M1.80005 2.80005C2.35233 2.80005 2.80005 2.35233 2.80005 1.80005C2.80005 1.24776 2.35233 0.800049 1.80005 0.800049C1.24776 0.800049 0.800049 1.24776 0.800049 1.80005C0.800049 2.35233 1.24776 2.80005 1.80005 2.80005Z" stroke="#1E1E1E" stroke-width="1.6" stroke-linecap="round" stroke-linejoin="round"/>
</svg>
